<svg width="274" height="273" viewBox="0 0 274 273" fill="none" xmlns="http://www.w3.org/2000/svg">
<path d="M213.841 102.283L204.126 213.089L199.83 262.099C199.566 264.778 198.389 267.286 196.496 269.2L196.443 269.255C196.432 269.267 196.421 269.278 196.409 269.288C196.388 269.31 196.368 269.331 196.346 269.351C194.171 271.483 191.262 272.7 188.217 272.751H39.0576C15.5113 272.751 -1.91385 253.679 0.168862 230.133L11.3527 102.283C12.9069 85.1101 24.3775 70.3248 39.5875 63.5686C45.3023 61.0108 51.4904 59.681 57.7515 59.6654H174.946C198.498 59.6654 215.918 78.7363 213.841 102.283Z" fill="url(#paint0_linear_2_10)"/>
<path d="M272.973 42.6172L259.016 202.428C258.984 202.75 258.938 203.069 258.879 203.384C258.461 205.679 257.37 207.798 255.745 209.471L255.722 209.494L255.559 209.658C253.398 211.799 250.494 213.026 247.452 213.082H98.2928C74.7465 213.082 57.3213 194.011 59.4041 170.471L70.592 42.6172C72.6693 19.0709 93.3926 0 116.939 0H234.138C257.631 0 275.053 19.0709 272.973 42.6172Z" fill="url(#paint1_linear_2_10)"/>
<path d="M213.841 102.283L204.126 213.089H98.2928C74.7465 213.089 57.3213 194.018 59.4041 170.478L69.1006 59.6722H174.946C198.498 59.6654 215.918 78.7363 213.841 102.283Z" fill="#4E00CE" fill-opacity="0.5"/>
<path d="M179.726 167.915C169.256 167.915 159.582 166.435 150.705 163.476C141.828 160.517 134.089 156.249 127.488 150.673C120.887 145.096 115.708 138.495 111.953 130.87C108.311 123.244 106.49 114.823 106.49 105.604C106.49 96.3854 108.311 87.9635 111.953 80.3382C115.708 72.713 120.83 66.112 127.317 60.5354C133.918 54.9587 141.657 50.6908 150.534 47.7318C159.411 44.7727 169.142 43.2932 179.726 43.2932C186.555 43.2932 193.156 44.033 199.529 45.5125C205.903 46.8782 211.878 48.8699 217.454 51.4875C223.145 54.1051 228.209 57.2349 232.648 60.8768L211.479 88.5325C209.317 86.484 206.699 84.5492 203.626 82.7282C200.554 80.9073 196.912 79.4278 192.701 78.2897C188.604 77.0378 183.824 76.4118 178.361 76.4118C174.036 76.4118 169.882 77.0378 165.899 78.2897C161.915 79.4278 158.273 81.2487 154.973 83.7525C151.786 86.2563 149.225 89.3861 147.291 93.1418C145.356 96.7837 144.388 101.109 144.388 106.116C144.388 110.782 145.413 114.936 147.461 118.578C149.51 122.22 152.298 125.293 155.826 127.797C159.354 130.301 163.395 132.179 167.947 133.43C172.499 134.682 177.336 135.308 182.458 135.308C187.693 135.308 192.359 134.569 196.456 133.089C200.667 131.496 204.366 129.675 207.553 127.626C210.853 125.464 213.642 123.415 215.918 121.48L233.331 149.307C230.03 152.266 225.592 155.168 220.015 158.013C214.438 160.859 208.179 163.249 201.236 165.183C194.294 167.004 187.124 167.915 179.726 167.915Z" fill="white"/>
<defs>
<linearGradient id="paint0_linear_2_10" x1="249.676" y1="-24.965" x2="72.1164" y2="247.272" gradientUnits="userSpaceOnUse">
<stop stop-color="#2609D3"/>
<stop offset="0.49" stop-color="#7122F2"/>
<stop offset="1" stop-color="#3D06DC"/>
</linearGradient>
<linearGradient id="paint1_linear_2_10" x1="22.4888" y1="286.359" x2="197.494" y2="76.1365" gradientUnits="userSpaceOnUse">
<stop stop-color="#2006BB"/>
<stop offset="0.170004" stop-color="#370ECB"/>
<stop offset="1" stop-color="#7122F2"/>
</linearGradient>
</defs>
</svg>
