<svg width="1174" height="273" viewBox="0 0 1174 273" fill="none" xmlns="http://www.w3.org/2000/svg">
<path d="M213.841 102.283L204.126 213.089L199.83 262.099C199.566 264.778 198.389 267.286 196.496 269.2L196.443 269.255C196.432 269.267 196.421 269.278 196.409 269.288C196.388 269.31 196.368 269.331 196.346 269.351C194.171 271.483 191.262 272.7 188.217 272.751H39.0576C15.5113 272.751 -1.91385 253.679 0.168862 230.133L11.3527 102.283C12.9069 85.1101 24.3775 70.3248 39.5875 63.5686C45.3023 61.0108 51.4904 59.681 57.7515 59.6654H174.946C198.498 59.6654 215.918 78.7363 213.841 102.283Z" fill="url(#paint0_linear_2_24)"/>
<path d="M272.973 42.6172L259.016 202.428C258.984 202.75 258.938 203.069 258.879 203.384C258.461 205.679 257.37 207.798 255.745 209.471L255.722 209.494L255.559 209.658C253.398 211.799 250.494 213.026 247.452 213.082H98.2928C74.7465 213.082 57.3213 194.011 59.4041 170.471L70.592 42.6172C72.6693 19.0709 93.3926 0 116.939 0H234.138C257.631 0 275.053 19.0709 272.973 42.6172Z" fill="url(#paint1_linear_2_24)"/>
<path d="M213.841 102.283L204.126 213.089H98.2928C74.7465 213.089 57.3213 194.018 59.4041 170.478L69.1006 59.6722H174.946C198.498 59.6654 215.918 78.7363 213.841 102.283Z" fill="#4E00CE" fill-opacity="0.5"/>
<path d="M179.726 167.915C169.256 167.915 159.582 166.435 150.705 163.476C141.828 160.517 134.089 156.249 127.488 150.673C120.887 145.096 115.708 138.495 111.953 130.87C108.311 123.244 106.49 114.823 106.49 105.604C106.49 96.3854 108.311 87.9635 111.953 80.3382C115.708 72.713 120.83 66.112 127.317 60.5354C133.918 54.9587 141.657 50.6908 150.534 47.7318C159.411 44.7727 169.142 43.2932 179.726 43.2932C186.555 43.2932 193.156 44.033 199.529 45.5125C205.903 46.8782 211.878 48.8699 217.454 51.4875C223.145 54.1051 228.209 57.2349 232.648 60.8768L211.479 88.5325C209.317 86.484 206.699 84.5492 203.626 82.7282C200.554 80.9073 196.912 79.4278 192.701 78.2897C188.604 77.0378 183.824 76.4118 178.361 76.4118C174.036 76.4118 169.882 77.0378 165.899 78.2897C161.915 79.4278 158.273 81.2487 154.973 83.7525C151.786 86.2563 149.225 89.3861 147.291 93.1418C145.356 96.7837 144.388 101.109 144.388 106.116C144.388 110.782 145.413 114.936 147.461 118.578C149.51 122.22 152.298 125.293 155.826 127.797C159.354 130.301 163.395 132.179 167.947 133.43C172.499 134.682 177.336 135.308 182.458 135.308C187.693 135.308 192.359 134.569 196.456 133.089C200.667 131.496 204.366 129.675 207.553 127.626C210.853 125.464 213.642 123.415 215.918 121.48L233.331 149.307C230.03 152.266 225.592 155.168 220.015 158.013C214.438 160.859 208.179 163.249 201.236 165.183C194.294 167.004 187.124 167.915 179.726 167.915Z" fill="white"/>
<path d="M363.724 187.445C353.026 187.445 343.58 185.396 335.386 181.299C327.192 177.202 320.704 171.625 315.924 164.569C311.258 157.399 308.925 149.318 308.925 140.327C308.925 131.223 311.258 123.142 315.924 116.086C320.591 109.03 326.964 103.453 335.044 99.3559C343.125 95.2587 352.287 93.2102 362.529 93.2102C372.203 93.2102 381.137 94.5759 389.332 97.3073C397.526 100.039 404.298 103.908 409.647 108.916L394.624 128.207C392.348 126.158 389.559 124.28 386.259 122.573C383.072 120.866 379.658 119.5 376.016 118.476C372.488 117.452 368.732 116.939 364.749 116.939C359.058 116.939 354.107 117.964 349.897 120.012C345.686 121.947 342.385 124.679 339.995 128.207C337.719 131.621 336.581 135.661 336.581 140.327C336.581 144.766 337.776 148.806 340.166 152.448C342.556 155.976 345.856 158.708 350.067 160.642C354.392 162.577 359.286 163.545 364.749 163.545C369.415 163.545 373.569 163.146 377.211 162.35C380.967 161.439 384.267 160.301 387.112 158.935C390.071 157.57 392.632 156.033 394.794 154.326L409.647 173.446C403.842 177.543 397.128 180.901 389.502 183.518C381.877 186.136 373.284 187.445 363.724 187.445Z" fill="#111111"/>
<path d="M423.736 185.737V95.088H449.684L450.879 127.524L443.539 125.475C445.246 119.443 448.034 114.037 451.904 109.257C455.887 104.364 460.496 100.494 465.732 97.6487C471.081 94.6897 476.657 93.2102 482.462 93.2102C485.99 93.2102 489.29 93.5516 492.363 94.2344C495.55 94.9173 498.338 95.8847 500.728 97.1366L493.217 126.67C491.168 125.304 488.437 124.223 485.022 123.427C481.608 122.63 478.251 122.232 474.95 122.232C471.195 122.232 467.837 122.801 464.878 123.939C461.919 125.077 459.415 126.67 457.367 128.719C455.318 130.767 453.782 133.1 452.757 135.718C451.733 138.222 451.221 140.84 451.221 143.571V185.737H423.736Z" fill="#111111"/>
<path d="M556.034 187.445C544.426 187.445 534.24 185.453 525.476 181.47C516.713 177.372 509.884 171.796 504.991 164.74C500.211 157.683 497.821 149.717 497.821 140.84C497.821 133.556 499.243 127.012 502.089 121.207C505.048 115.403 508.974 110.452 513.868 106.355C518.875 102.144 524.737 98.9006 531.451 96.6245C538.166 94.3483 545.222 93.2102 552.62 93.2102C560.131 93.2102 567.017 94.3483 573.276 96.6245C579.65 98.9006 585.17 102.087 589.836 106.184C594.616 110.168 598.258 114.948 600.761 120.524C603.379 126.101 604.574 132.247 604.346 138.962L604.176 146.985H516.599L512.673 130.426H581.983L579.081 134.182V130.767C578.626 127.694 577.203 125.02 574.813 122.744C572.423 120.468 569.35 118.704 565.594 117.452C561.839 116.086 557.628 115.403 552.961 115.403C547.385 115.403 542.377 116.257 537.939 117.964C533.5 119.557 529.972 122.118 527.354 125.646C524.737 129.06 523.428 133.442 523.428 138.791C523.428 143.685 524.907 148.066 527.866 151.936C530.939 155.805 535.207 158.878 540.67 161.155C546.133 163.317 552.62 164.398 560.131 164.398C567.074 164.398 572.764 163.601 577.203 162.008C581.755 160.301 585.511 158.537 588.47 156.716L600.42 174.3C596.437 177.145 592.055 179.535 587.275 181.47C582.495 183.404 577.487 184.884 572.252 185.908C567.017 186.932 561.611 187.445 556.034 187.445Z" fill="#111111"/>
<path d="M655.499 187.615C646.053 187.615 637.802 185.624 630.746 181.64C623.69 177.657 618.17 172.08 614.187 164.91C610.203 157.74 608.212 149.603 608.212 140.498C608.212 131.279 610.26 123.142 614.357 116.086C618.454 108.916 624.145 103.339 631.429 99.3559C638.826 95.2587 647.305 93.2102 656.865 93.2102C662.328 93.2102 667.393 93.893 672.059 95.2587C676.839 96.5106 681.05 98.2747 684.692 100.551C688.447 102.713 691.406 105.16 693.569 107.892C695.845 110.623 697.154 113.411 697.495 116.257L691.008 117.793V59.4087H718.493V185.737H693.057L691.52 162.862L696.983 164.569C696.642 167.414 695.276 170.202 692.886 172.934C690.61 175.665 687.594 178.112 683.838 180.275C680.082 182.437 675.758 184.201 670.864 185.567C666.084 186.932 660.962 187.615 655.499 187.615ZM663.523 164.227C669.214 164.227 674.164 163.26 678.375 161.325C682.7 159.277 686 156.488 688.277 152.96C690.553 149.318 691.691 145.164 691.691 140.498C691.691 135.718 690.553 131.564 688.277 128.036C686 124.508 682.7 121.719 678.375 119.671C674.164 117.622 669.214 116.598 663.523 116.598C657.833 116.598 652.882 117.622 648.671 119.671C644.574 121.719 641.33 124.508 638.94 128.036C636.55 131.564 635.355 135.718 635.355 140.498C635.355 145.164 636.55 149.318 638.94 152.96C641.33 156.488 644.574 159.277 648.671 161.325C652.882 163.26 657.833 164.227 663.523 164.227Z" fill="#111111"/>
<path d="M786.819 187.445C775.21 187.445 765.024 185.453 756.261 181.47C747.498 177.372 740.669 171.796 735.775 164.74C730.995 157.683 728.605 149.717 728.605 140.84C728.605 133.556 730.028 127.012 732.873 121.207C735.832 115.403 739.759 110.452 744.652 106.355C749.66 102.144 755.521 98.9006 762.236 96.6245C768.951 94.3483 776.007 93.2102 783.405 93.2102C790.916 93.2102 797.802 94.3483 804.061 96.6245C810.434 98.9006 815.954 102.087 820.62 106.184C825.4 110.168 829.042 114.948 831.546 120.524C834.164 126.101 835.359 132.247 835.131 138.962L834.96 146.985H747.384L743.457 130.426H812.768L809.865 134.182V130.767C809.41 127.694 807.988 125.02 805.598 122.744C803.208 120.468 800.135 118.704 796.379 117.452C792.623 116.086 788.412 115.403 783.746 115.403C778.169 115.403 773.162 116.257 768.723 117.964C764.285 119.557 760.757 122.118 758.139 125.646C755.521 129.06 754.212 133.442 754.212 138.791C754.212 143.685 755.692 148.066 758.651 151.936C761.724 155.805 765.992 158.878 771.455 161.155C776.918 163.317 783.405 164.398 790.916 164.398C797.858 164.398 803.549 163.601 807.988 162.008C812.54 160.301 816.296 158.537 819.255 156.716L831.205 174.3C827.221 177.145 822.84 179.535 818.06 181.47C813.28 183.404 808.272 184.884 803.037 185.908C797.802 186.932 792.396 187.445 786.819 187.445Z" fill="#111111"/>
<path d="M851.629 185.737V95.088H877.578L878.602 117.964L871.603 119.671C873.082 115.005 875.7 110.68 879.456 106.697C883.211 102.713 887.821 99.4697 893.283 96.9659C898.86 94.4621 905.063 93.2102 911.891 93.2102C920.086 93.2102 927.028 94.8604 932.719 98.1609C938.409 101.348 942.734 105.843 945.693 111.647C948.766 117.338 950.302 123.939 950.302 131.45V185.737H922.817V136.401C922.817 132.19 921.963 128.605 920.256 125.646C918.549 122.573 916.159 120.24 913.086 118.647C910.013 117.053 906.372 116.257 902.161 116.257C898.633 116.257 895.389 116.883 892.43 118.134C889.585 119.386 887.138 121.037 885.089 123.085C883.154 125.134 881.618 127.353 880.48 129.743C879.456 132.019 878.943 134.352 878.943 136.742V185.737H865.457C861.246 185.737 858.002 185.737 855.726 185.737C853.45 185.737 852.084 185.737 851.629 185.737Z" fill="#111111"/>
<path d="M1020.07 187.445C1009.37 187.445 999.924 185.396 991.73 181.299C983.535 177.202 977.048 171.625 972.268 164.569C967.602 157.399 965.269 149.318 965.269 140.327C965.269 131.223 967.602 123.142 972.268 116.086C976.934 109.03 983.308 103.453 991.388 99.3559C999.469 95.2587 1008.63 93.2102 1018.87 93.2102C1028.55 93.2102 1037.48 94.5759 1045.68 97.3073C1053.87 100.039 1060.64 103.908 1065.99 108.916L1050.97 128.207C1048.69 126.158 1045.9 124.28 1042.6 122.573C1039.42 120.866 1036 119.5 1032.36 118.476C1028.83 117.452 1025.08 116.939 1021.09 116.939C1015.4 116.939 1010.45 117.964 1006.24 120.012C1002.03 121.947 998.729 124.679 996.339 128.207C994.063 131.621 992.925 135.661 992.925 140.327C992.925 144.766 994.12 148.806 996.51 152.448C998.9 155.976 1002.2 158.708 1006.41 160.642C1010.74 162.577 1015.63 163.545 1021.09 163.545C1025.76 163.545 1029.91 163.146 1033.55 162.35C1037.31 161.439 1040.61 160.301 1043.46 158.935C1046.42 157.57 1048.98 156.033 1051.14 154.326L1065.99 173.446C1060.19 177.543 1053.47 180.901 1045.85 183.518C1038.22 186.136 1029.63 187.445 1020.07 187.445Z" fill="#111111"/>
<path d="M1125.66 187.445C1114.05 187.445 1103.87 185.453 1095.1 181.47C1086.34 177.372 1079.51 171.796 1074.62 164.74C1069.84 157.683 1067.45 149.717 1067.45 140.84C1067.45 133.556 1068.87 127.012 1071.71 121.207C1074.67 115.403 1078.6 110.452 1083.49 106.355C1088.5 102.144 1094.36 98.9006 1101.08 96.6245C1107.79 94.3483 1114.85 93.2102 1122.25 93.2102C1129.76 93.2102 1136.64 94.3483 1142.9 96.6245C1149.28 98.9006 1154.8 102.087 1159.46 106.184C1164.24 110.168 1167.88 114.948 1170.39 120.524C1173.01 126.101 1174.2 132.247 1173.97 138.962L1173.8 146.985H1086.23L1082.3 130.426H1151.61L1148.71 134.182V130.767C1148.25 127.694 1146.83 125.02 1144.44 122.744C1142.05 120.468 1138.98 118.704 1135.22 117.452C1131.46 116.086 1127.25 115.403 1122.59 115.403C1117.01 115.403 1112 116.257 1107.56 117.964C1103.13 119.557 1099.6 122.118 1096.98 125.646C1094.36 129.06 1093.05 133.442 1093.05 138.791C1093.05 143.685 1094.53 148.066 1097.49 151.936C1100.57 155.805 1104.83 158.878 1110.3 161.155C1115.76 163.317 1122.25 164.398 1129.76 164.398C1136.7 164.398 1142.39 163.601 1146.83 162.008C1151.38 160.301 1155.14 158.537 1158.1 156.716L1170.05 174.3C1166.06 177.145 1161.68 179.535 1156.9 181.47C1152.12 183.404 1147.11 184.884 1141.88 185.908C1136.64 186.932 1131.24 187.445 1125.66 187.445Z" fill="#111111"/>
<defs>
<linearGradient id="paint0_linear_2_24" x1="249.676" y1="-24.965" x2="72.1164" y2="247.272" gradientUnits="userSpaceOnUse">
<stop stop-color="#2609D3"/>
<stop offset="0.49" stop-color="#7122F2"/>
<stop offset="1" stop-color="#3D06DC"/>
</linearGradient>
<linearGradient id="paint1_linear_2_24" x1="22.4888" y1="286.359" x2="197.494" y2="76.1365" gradientUnits="userSpaceOnUse">
<stop stop-color="#2006BB"/>
<stop offset="0.170004" stop-color="#370ECB"/>
<stop offset="1" stop-color="#7122F2"/>
</linearGradient>
</defs>
</svg>
